<svg xmlns="http://www.w3.org/2000/svg" viewBox="0 0 350 350"><title>eagle</title><path d="M179.5,68.9a101.3,101.3,0,0,0-84.1,44.8A100,100,0,0,0,242.3,249.5,101.2,101.2,0,0,0,179.5,68.9Zm0,200a98.9,98.9,0,1,1,73.2-32.6A98.9,98.9,0,0,1,179.5,268.9Z" fill="#141414"/><path d="M179.5,73.4a96.8,96.8,0,1,0,96.7,96.7A96.9,96.9,0,0,0,179.5,73.4ZM145.1,220.3c-3,.4-9.8,1.5-11.1,1.3s-.5-.6-.6-1.6a12.6,12.6,0,0,1,.4-4.1,27.3,27.3,0,0,1,5.2-10.2l7.3,14.4Zm16.5,7.3c-2.5.3-7.2-.1-10.2-2.8l-10.6-21.1a37.5,37.5,0,0,1,3.5-3.3l2.9-2.5,14.9,29.6Zm59-11.2c-1.6.1-5.9,2.7-10.4,5.2l-18.4-36.4a1.3,1.3,0,0,0-2.3,1.1L208,222.8a41,41,0,0,1-7.4,3.4h0l-19.4-38.4a1.3,1.3,0,0,0-1.7-.6,1.4,1.4,0,0,0-.6,1.7L198,226.5a109.3,109.3,0,0,1-10.8-2.2l-17.4-34.4a1.3,1.3,0,0,0-1.7-.6,1.3,1.3,0,0,0-.6,1.7l16.6,32.7a21.2,21.2,0,0,0-3.8-.4,39.7,39.7,0,0,0-5.8,1.1l-16.1-31.9a1.3,1.3,0,0,0-2.2,1.2l15.9,31.4-7.4,1.9-15.6-30.9c11.2-11.2,15.6-24.5,14.8-33.4-.5-4.8-2.4-8.4-5.5-10a62.1,62.1,0,0,0-12.1-4.7c-6.1-1.9-12.4-3.9-16.2-7.7a12.1,12.1,0,0,1,4.4-1.8c2.2-.5,8.5,1.7,14.1,3.6,8.8,3,14.8,4.9,17.7,3.8a1.2,1.2,0,0,0,.7-1.6,1.2,1.2,0,0,0-1.6-.7c-2.2.8-9.9-1.8-16-3.9s-12.6-4.3-15.4-3.7c-5.3,1.1-8.8,4.4-9.6,8.6a9.6,9.6,0,0,1-1.6-4c-.7-3.8.2-8.4,2.3-10.9s5.4-3.6,8.9-4.7l4.4-1.5c1.7.8,2.8,2.8,3.8,4.7h0c1.1,2.1,2.4,4.6,4.7,6h.6a1.4,1.4,0,0,0,1.1-.6,1.3,1.3,0,0,0-.4-1.7c-1.7-1-2.7-3-3.7-4.9V127a16.1,16.1,0,0,0-3.4-4.8h0c11.2-6.6,25.1-8.3,39.3-4.7,7.9,2,14.7,5.2,22,8.6,5.6,2.6,11.4,5.3,18.2,7.7-3.6,1.3-7.9,3-9,6.4s-.1,4.6,1.8,7.3c7.2,10,8.8,31.1,9.8,43.7.3,4.7.6,8.2,1.1,9.7a41,41,0,0,0,6.1,12.4,35.1,35.1,0,0,0,2.9,3.6C231,217.1,223.7,216,220.6,216.4Zm30.5,12.3c-3.1-5.7-13.5-11.2-15-12.4-5-3.8-7.7-10.1-9.6-16.1a88.5,88.5,0,0,1-.9-9.2c-1-12.9-2.7-34.4-10.2-45-1.5-2-2-3.6-1.5-5s5.5-4.2,8.9-5.2l2.1-.8a1.1,1.1,0,0,0,.8-1.2,1.1,1.1,0,0,0-.8-1.1,172.1,172.1,0,0,1-21.6-8.9c-7.3-3.4-14.2-6.7-22.4-8.7-14.8-3.8-29.4-2-41.2,5a36.4,36.4,0,0,1-6.5,2.5c-3.6,1.1-7.4,2.3-10,5.5s-3.7,8.4-2.9,13a10.1,10.1,0,0,0,4.6,7.2,1.5,1.5,0,0,0,1.3,0,1.1,1.1,0,0,0,.5-1.2,7.1,7.1,0,0,1,1.6-5.2c4.1,4.4,10.8,6.5,17.3,8.5,4.1,1.3,8.3,2.6,11.7,4.5s3.7,4.1,4.1,8c1,11-5.9,23-14,31.3l-1.3,1.3c-1.1,1.1-2.3,2.1-3.4,3a39.5,39.5,0,0,0-4.2,3.9c-.1.1-.3.3-.3.4a30,30,0,0,0-6.9,12.6c-6,1-17.8,19-18.1,19.5a1.4,1.4,0,0,0-.2.6,93.2,93.2,0,1,1,138.3-5.9A1.5,1.5,0,0,0,251.1,228.7Z" fill="#141414"/><path d="M183,127.8l-28.4-4.3a1.1,1.1,0,0,0-1.4,1.4c.1,1.7,2.4,2.8,7.8,3.5a8.2,8.2,0,0,0,4.6,7.2,7,7,0,0,0,2.7.6,5.3,5.3,0,0,0,3.7-1.6,5.5,5.5,0,0,0,1.7-5.2l4.4.5a28.6,28.6,0,0,0,4.8.4,1.3,1.3,0,0,0,1.2-1.1A1.3,1.3,0,0,0,183,127.8Zm-12.7,5a2.9,2.9,0,0,1-3.6.5,5.7,5.7,0,0,1-3.2-5.8h.1l2.5.4a4.5,4.5,0,0,0,.7,4.3,1.1,1.1,0,0,0,.9.4,1.6,1.6,0,0,0,.9-.3,1.2,1.2,0,0,0,.1-1.7,2.1,2.1,0,0,1-.1-2.3l2,.3.2.3A3.2,3.2,0,0,1,170.3,132.8Z" fill="#141414"/></svg>