<svg xmlns="http://www.w3.org/2000/svg" viewBox="0 0 350 350"><title>stock_button</title>
      <rect class="shadow" x="95.9" y="142.6" width="147.4" height="75.84" fill="#141414"/>
      <rect class="frame" x="105.4" y="132.8" width="147.4" height="75.84" fill="#4a89ca" stroke="#141414" stroke-width="2.5px"/>
      <!-- <path d="M254.1,209.9H104.2V131.5H254.1Zm-147.4-2.5H251.6V134H106.7Z" fill="#141414"/> -->
      <g class="words">
        <path d="M142.8,154.1a1.3,1.3,0,0,0-1.7.7,5.1,5.1,0,0,1-3.9,3c-1.6.4-3.7,1-3.7,4.3a1.3,1.3,0,1,0,2.6,0c0-1.1.1-1.2,1.7-1.6l1-.3-7.4,17a1.4,1.4,0,0,0,.6,1.8h.6a1.3,1.3,0,0,0,1.2-.8l9.7-22.4A1.4,1.4,0,0,0,142.8,154.1Z" fill="#141414"/>
        <path d="M152.6,172c-1.6,3.5-3,4.6-4.3,4.6h-.1c-.5,0-.6-.8-.5-1.6a3.6,3.6,0,0,1,.4-.9c1.8-4.2,2.1-4.5,2.1-6a2.9,2.9,0,0,0-3-3.2,5.6,5.6,0,0,0-3.3,1.4,1.3,1.3,0,1,0-2.4-.9l-5.1,12.1v.2a1.3,1.3,0,0,0,1.2,1.7,1.4,1.4,0,0,0,1.2-.8l.9-2.3c2.2-4.6,5.4-8.9,7.2-8.9a.9.9,0,0,1,.8.8c0,1.4-.7,2.1-1.9,4.9-.1.1-.1.2-.2.4-1.1,2.9-.5,5.9,2.4,5.9s5.1-1.8,7-6.4A1.3,1.3,0,1,0,152.6,172Z" fill="#141414"/>
        <path d="M180.5,161.7c1.5-1.5,2.6-2.5,3.2-4.4,1.6-4.7-3.8-5.8-5.3-1.7a12.6,12.6,0,0,0-.4,5.2c-1.4,1.5-2.7,3-4.2,4.4-4.8-1.4-9.2,2-9.1,7.4a13.5,13.5,0,0,0-3.8,5,1.3,1.3,0,0,0,.6,1.7,1.2,1.2,0,0,0,1.7-.7,9.2,9.2,0,0,1,2.3-3.2,7.1,7.1,0,0,0,6.2,4.3c3.9,0,6.8-2.6,8.2-6.3s.9-6.3.7-9.8A12.8,12.8,0,0,1,180.5,161.7Zm-8.7,5.6-4.4,3.6A4.8,4.8,0,0,1,171.8,167.3Zm5.9,5.1c-1.1,2.7-3.4,4.6-5.7,4.6s-3.5-1.6-4.3-3.2l2.2-1.9,4.3-3.8a1.2,1.2,0,0,0,1.4-.6,1.1,1.1,0,0,0,.1-.8,27.2,27.2,0,0,0,2.4-2.4C178.3,167.3,178.5,170.4,177.7,172.4Zm2.8-15.9c.7-1.7,1.6-1.5.9.4a7.8,7.8,0,0,1-1.3,2A7,7,0,0,1,180.5,156.5Z" fill="#141414"/>
        <path d="M224.5,172c-1.6,3.6-3.1,4.6-4.4,4.6s-2.5-1.5-2.1-3.4c3,.2,6.5-2.8,6.9-5.5a2.6,2.6,0,0,0-2.7-2.9,5.2,5.2,0,0,0-3.3,1.4l3.2-7.2a1.3,1.3,0,0,0-2.4-1.2l-5.8,13.6c-1.5,3.3-4.2,5.2-6.3,5.2a2.7,2.7,0,0,1-2.8-2.8,4.1,4.1,0,0,1,.1-1.1.6.6,0,0,0,.1-.4c.7-2.4,2.9-4.8,4.8-4.8s.9.4.7,1,1.3,2.6,2.1.9-.3-4.3-2.8-4.3-6.5,3.4-7.4,6.8-2.2,3.7-3.3,3.7H199a10.4,10.4,0,0,0,1.7-6.3,5,5,0,0,0-2.3-4.1,4.3,4.3,0,0,0-4.5.3,10.3,10.3,0,0,0-4.6,6.4h0c-1.6,3.6-3.1,4.6-4.4,4.6s-1.6-1.2-1.1-2.3l2.9-6.8h1.4a1.3,1.3,0,0,0,1.3-1.3,1.3,1.3,0,0,0-1.3-1.4h-.2l1-2.3c.6-1.6-1.6-2.7-2.3-1.1l-1.5,3.4h-1.6a1.3,1.3,0,0,0-1.3,1.4,1.3,1.3,0,0,0,1.3,1.3h.4l-2.5,5.7c-1.3,3.1.2,6.2,3.3,6.2,1.5,0,3.2-.9,4.8-2.8a4,4,0,0,0,4.6,2.7,6.2,6.2,0,0,0,1.9-.7,4.8,4.8,0,0,0,1.1-.9,2.8,2.8,0,0,0,1.8.6,5,5,0,0,0,3.9-2,5,5,0,0,0,4.8,3.1,8.1,8.1,0,0,0,3.6-1,1.3,1.3,0,0,0,2.4.2l1.7-4c.2,2.6,2.3,4.8,4.5,4.8s5.1-1.9,7-6.4A1.3,1.3,0,1,0,224.5,172Zm-4.1-4c1-.6,2.1-.9,2.1-.2s-3.4,3.5-4.6,2.8A8.9,8.9,0,0,1,220.4,168ZM198,171.8a1.9,1.9,0,0,0-2.1,1.3,3.5,3.5,0,0,0-.2,2.5l-.9.6a1.8,1.8,0,0,1-3.1-1.6,7.5,7.5,0,0,1,3.4-6.7,2.5,2.5,0,0,1,2.2-.3c.5.3.8.9.9,2A5.7,5.7,0,0,1,198,171.8Z" fill="#141414"/>
      </g>
    </svg>
