<svg xmlns="http://www.w3.org/2000/svg" viewBox="0 0 350 350"><title>tools_1</title><path d="M179.5,68.9a101.3,101.3,0,0,0-84.1,44.8A100,100,0,0,0,242.3,249.5,101.2,101.2,0,0,0,179.5,68.9Zm0,200a98.9,98.9,0,1,1,73.2-32.6A98.9,98.9,0,0,1,179.5,268.9Z" fill="#141414"/><path d="M179.5,73.4a96.8,96.8,0,1,0,96.7,96.7A96.9,96.9,0,0,0,179.5,73.4Zm0,190a93.3,93.3,0,0,1-89.1-65.8,24.1,24.1,0,0,0,3.6,2.9c5.1,3.2,11.7,5.4,15.9,5.4a6.1,6.1,0,0,0,2.4-.4c5.9-2.1,12.1-1.4,16.6-.9s5.9.8,7.5-.3a1.1,1.1,0,0,0,.6-1.1,24.4,24.4,0,0,0-.7-3.9h17l-12.2,12.3c-7.1-1.8-21,16.2-21.2,16.4a1.2,1.2,0,0,0-.1,1.3,1.5,1.5,0,0,0,1.3.7,16.3,16.3,0,0,1,3.9.4l3,.3a5.6,5.6,0,0,0-.4,1.2,36.7,36.7,0,0,0-1.1,3.7,1.1,1.1,0,0,0,.2,1.1,1.1,1.1,0,0,0,.9.5l3.4.3,2.7.2a17.2,17.2,0,0,0-1.5,6.3,1.1,1.1,0,0,0,.6,1.1,1.5,1.5,0,0,0,1.3,0,15.4,15.4,0,0,1,3.1-.6l2.4-.5c.2.7.4,1.5.7,2.4a25.6,25.6,0,0,1,1,3.4,1.2,1.2,0,0,0,.7,1,1.3,1.3,0,0,0,1.2,0,30.6,30.6,0,0,0,2.9-2.1,21.3,21.3,0,0,1,3.2-2.3,25.1,25.1,0,0,0,4.4,4.9c1.2.8,2.4-.4,4.3-2.5l1.7-1.7,3.8,4.2.9,1.1.9.3h.1a1.2,1.2,0,0,0,1-.5,3.5,3.5,0,0,1,.5-.8,47.3,47.3,0,0,1,2.9-4.4c1.7,2.2,4.6,4.9,6.7,4.6s1.1-.1,2-6.2c1.9-13.4,1.7-21.3-.8-23.8l.9-11.3h.1a8.2,8.2,0,0,0,6.4-2.6,6.4,6.4,0,0,0,1.4-6.4,5,5,0,0,0,4.9-1.3c3.9-3.2,2.9-7.1,1.7-9.3a13,13,0,0,0,2.9-4.3c1-2,.4-4.1-.4-5.9L222,139.9l3.3,5.6a1.5,1.5,0,0,0,1.1.7h.3a1.3,1.3,0,0,0,1-1l3.2-21.4a1.3,1.3,0,0,0-.7-1.3,1.2,1.2,0,0,0-1.4.2l-15.5,13.1,10.4-20.9,3.8,6.1a1.4,1.4,0,0,0,1.1.6h.2a1.3,1.3,0,0,0,1-1l2.5-21.5a1.2,1.2,0,0,0-2-1.1l-15.9,14.3a1.5,1.5,0,0,0-.4,1.4,1.3,1.3,0,0,0,1.3.8l6-.2-15.9,32,.6-7.5a1.4,1.4,0,0,0-.7-1.2,1.1,1.1,0,0,0-1.4.2l-9.2,8.9,9.9-26.3,4.2,4.4a1.1,1.1,0,0,0,.9.4h.5a1.1,1.1,0,0,0,.7-1.2l-1.5-21.6a1.4,1.4,0,0,0-.9-1.1,1.3,1.3,0,0,0-1.4.5l-12.6,16.7-.3-2.2a1.3,1.3,0,0,0-1-1,1.2,1.2,0,0,0-1.3.6L184,128.2l-1.5-5.8a1.2,1.2,0,0,0-1.1-.9,1.1,1.1,0,0,0-1.2.7l-9.5,19.1a1.2,1.2,0,0,0,.2,1.5,1.4,1.4,0,0,0,1.4.2l5.8-2.5L175,170a7.3,7.3,0,0,0-2.8,2.1,11,11,0,0,0-6-3.8h-.3c-2.7-.8-6.1-1.7-8.9,2.5-1.1,1.7-3.1,4.9-1.8,9-3.2.1-19.7-.2-21.9-.3-1.4-8-29.9-36.2-42-39.6a93.2,93.2,0,1,1,88.2,123.5Zm1.1-128.2a1.5,1.5,0,0,0,1.4.4l1.3-.4,1.4,5.3-3.8-2.7-.4-.4a1.1,1.1,0,0,0-.8-.2h-.5l-.8.3-4,1.8,6.5-13.2,1.3,4.9-1.6,2.6A1.4,1.4,0,0,0,180.6,135.2Zm0,5.4,4.9,3.5L179,169.9l-1.4-.2Zm21.8-21.7L197,133.3l-2.1-12.8h.6Zm-4.1-1.6,8.8-11.7,1.1,14.7-2.6-2.7-1-1.1a1.1,1.1,0,0,0-.9-.4h-.3Zm-3.1,20.9-4.7,12.3-2,2a1.2,1.2,0,0,0-.3,1.4,1.8,1.8,0,0,0,.8.7l-6.4,16.9-1.2-.7,9.2-36.8Zm24.7.4L194,178.3a6.7,6.7,0,0,0-1.4-.9l8.7-17.6.6.9a1.4,1.4,0,0,0,1.1.6h.3a1.3,1.3,0,0,0,.9-1.2l.6-7.3,7.4-14.9a1.2,1.2,0,0,0,1.1.7h6.6Zm-3.2-2.5,11.2-9.5-2.2,14.6-2.7-4.5a1.1,1.1,0,0,0-1-.6h-5.3Zm-18.5,19.2,1.5,2.2-9.4,18.8-1.1-.4h0Zm-11.3,19.6-1.2-.7a3.5,3.5,0,0,0-1-1.1h0l7-18.5,4.3-.3Zm15.5-22.8-1.4,2.8-2-2.8h-.1l-.4-.3h-.6l-5.2.4,10.5-10.2Zm-16.7-17.7,2.4-.8-1.3,5.1Zm5-3.6h-.1a.1.1,0,0,0-.1-.1l-.3-.2h-.7L185,132v-.5l7.3-11.8,2.4,14.6Zm-6.9,45a14.2,14.2,0,0,0,4.5,2.4c1.7.7,4.3,1.7,4.7,2.6s1.4,3.2.8,4.4a11,11,0,0,1-2.3,3.4h-.7a26.9,26.9,0,0,1-5-2.6l-2.5-1.4a1.3,1.3,0,0,0-1.7.5,1.2,1.2,0,0,0,.5,1.7l2.5,1.4a21.9,21.9,0,0,0,5.9,2.9c1.1,1.8,2.2,4.6-.7,6.9-1.2,1.1-1.8,1-3.3.7l-2-.4a20.8,20.8,0,0,0-4.2-.8c-1.8-.2-4.7-.5-5.8-1.2a2.9,2.9,0,0,0,1.6-.4c1.2-.6,1.8-3,1.7-4.9a4.5,4.5,0,0,0-2.9-4.1l-.9-.4a18.3,18.3,0,0,0-.6-4.1,13,13,0,0,0,5,1.6l.8-.2a4.3,4.3,0,0,0,2.3-2.3,4.6,4.6,0,0,0,.3-3.6c-.1-.4-.6-1.5-3.9-2.4a16.1,16.1,0,0,0-4.7-.5h0c.9-1.7,2.1-2.7,3.5-2.8S182.4,174.1,183.8,175.8Zm-47.2,59.9a1.1,1.1,0,0,0-1-.6,31.7,31.7,0,0,1-4.3-.2l-2-.2a17.1,17.1,0,0,1,.7-2.1c.3-1.1.6-1.9.8-3a1.5,1.5,0,0,0-.4-1.1,1.4,1.4,0,0,0-1.1-.3,24.1,24.1,0,0,1-3.9-.4l-2-.3c8-9.9,15.5-14.6,17.3-13.5a1.4,1.4,0,0,0,1.6-.2l15.4-15.5a11,11,0,0,0,.2,1.8l-13.2,17.4a1.2,1.2,0,0,0,.2,1.7,1.3,1.3,0,0,0,.8.3,1.4,1.4,0,0,0,1-.5l11.8-15.5a3.8,3.8,0,0,0,2.5,2.3l-6.4,10a1.3,1.3,0,0,0,.3,1.7l.7.2a1.4,1.4,0,0,0,1.1-.6l6.9-10.7c1,.2,2.1.2,3.1.3h.1l-9.5,18a1.2,1.2,0,0,0,.5,1.7h.6a1.4,1.4,0,0,0,1.1-.6l9.9-18.8v-.2h.4a20,20,0,0,0,2.4,1.6l-6,16.6a1.3,1.3,0,0,0,.8,1.6h.4a1.3,1.3,0,0,0,1.2-.8l5.9-16.5,1.6.5-.9,12a1.3,1.3,0,0,0,.7,1.3c2.8,1.3.7,20-.5,25.5a15.1,15.1,0,0,1-4.3-4.4,1,1,0,0,0-.8-.6,1,1,0,0,0-.9.2c-1.3.8-2.8,3-4.3,5.3a53.6,53.6,0,0,0-4.7-5,1.1,1.1,0,0,0-1.3,0,17.5,17.5,0,0,0-2.9,2.7l-1.6,1.7a27.3,27.3,0,0,1-3.7-4.5,1.1,1.1,0,0,0-1.5-.6,16.1,16.1,0,0,0-4.8,3l-1.3.9a10.1,10.1,0,0,0-.6-1.9c-.4-1.3-.9-2.9-1-3.4a1.3,1.3,0,0,0-.6-1,1.5,1.5,0,0,0-1.3,0,12.1,12.1,0,0,1-3,.7l-1.9.3a27.6,27.6,0,0,1,1.8-5.3A1,1,0,0,0,136.6,235.7ZM171.3,205c-.9-.6-2.5-.7-4.5-.8s-5.5-.4-6-1.7a15.9,15.9,0,0,1-1.1-3.8,7.9,7.9,0,0,0,2.7,1.6,3.4,3.4,0,0,0,1.4.2,5.1,5.1,0,0,0,2.2-.5,3.2,3.2,0,0,0,1.7-2.1c.4-1.7-.8-2.6-2.2-3.7l-.8-.6c-.2-.2-.2-.7-.2-1.6s2.8.8,4.5,1.9l2.6,1.6a2.9,2.9,0,0,0,.5,2c1.2,1.7,4.6,2.1,7.9,2.5l3.4.6c1.3,2.1,1.2,3.8-.2,5.3C180.1,209.4,174.2,207.3,171.3,205Zm-8.1-9.4.8.6a8.8,8.8,0,0,1,1.3,1.1l-.5.5a2.2,2.2,0,0,1-1.6.1c-1.3-.4-3.1-2-3.1-2.6s1-3.1,2-4.7C161.9,192.8,162,194.7,163.2,195.6Zm16.3-16.8a2.5,2.5,0,0,1-.3,1.6,2.1,2.1,0,0,1-.8,1.1c-.7.1-3.7-1-5.7-2.5s-1.1-1.1-1.1-1.2h0C172.5,177,178.5,177.8,179.5,178.8Zm-5.4,10.4a2.1,2.1,0,0,1,1.1,1.3,5.3,5.3,0,0,1-.4,3.3c-1,.3-2.8-.9-4.5-2a12.9,12.9,0,0,0-5.2-2.4c.2-.8.4-1.8.8-2S170,187.7,174.1,189.2Zm-8.3-6.7c-.3-.1-1.1-.6-.2-2.6.1-.3.5-.4.8-.4h.3a5,5,0,0,1,3.6,1.9,10.7,10.7,0,0,1,1.1,3.9A32.6,32.6,0,0,1,165.8,182.5Zm4.1-6.6a1.9,1.9,0,0,0-.8,1.5,6,6,0,0,0-2.9-.4,3.3,3.3,0,0,0-2.9,1.9c-.8,1.8-.8,3.4,0,4.6a5.2,5.2,0,0,1-5.2-3.1c-1.9-3.7-.2-6.3,1-8.3s3.2-2.2,6.1-1.4h.3c2.7.8,4.5,2.1,5.5,4.2l.2.3Zm-7.6,10a21.8,21.8,0,0,0-2.9,4.2,12.8,12.8,0,0,0-1.7,4.7l-1.9,1.8-20.2.2a10.9,10.9,0,0,0-.5-1.7c-1.2-4-2.4-7.7-1.5-12.4,0-.2.1-.5.1-.7l6.8.2,12.4.2h3.4A7.2,7.2,0,0,0,162.3,185.9Zm60.2-74.4-3.9.2,10.9-9.8-1.8,14.6-2.7-4.3h-.1a1.1,1.1,0,0,0-1-.6h-1.4Z" fill="#141414"/></svg>